<?xml version="1.0" encoding="utf-8"?>
<!-- Generator: Adobe Illustrator 27.0.0, SVG Export Plug-In . SVG Version: 6.00 Build 0)  -->
<svg version="1.1" id="Layer_1" xmlns="http://www.w3.org/2000/svg" xmlns:xlink="http://www.w3.org/1999/xlink" x="0px" y="0px"
	 viewBox="0 0 472 472" style="enable-background:new 0 0 472 472;" xml:space="preserve">
<style type="text/css">
	.st0{fill:#FFFFFF;}
</style>
<g transform="translate(0,0)">
	<path class="st0" d="M176.5,4.1c-8.2,1-16.5,2.1-24.7,3.5c21,13,40.2,31.3,52.3,63.5c-25.2-24.8-44.6-43.6-76.6-59
		c-8.9,1.9-17.9,4-27,6.2c22.9,11.8,49.5,28.8,75.9,56.6c-58-28-82.5-34.2-121.4-43.5c-12.2,4-24.6,8.3-37.3,12.9
		C73,48.2,121.8,65.9,206.9,96.9l2,0.8l1.5,1.7c5.9,6.4,15.6,10.3,25.5,10.4C233.1,66.3,217,34.9,176.5,4.1L176.5,4.1z M296.3,4.1
		c-40.4,30.9-56.7,62.1-59.4,105.6c9.9-0.1,19.6-4,25.5-10.4l1.5-1.7l2-0.8c85.1-31,133.8-48.7,189.2-52.6
		c-12.6-4.6-25.1-8.9-37.3-12.9c-38.8,9.2-63.4,15.3-121.4,43.5c26.4-27.8,52.9-44.8,75.9-56.6c-9.1-2.3-18-4.4-27-6.2
		c-31.9,15.4-51.4,34.2-76.6,59C280.8,38.9,300,20.6,321,7.6C312.7,6.3,304.5,5.1,296.3,4.1L296.3,4.1z M3,63.7v332.7
		c45.2,0.2,107.1,18.5,191.9,49.1V113.6C107.1,81.6,60.3,65.3,3,63.7L3,63.7z M469.7,63.7c-57.3,1.5-104,17.9-191.9,49.8v331.9
		c85.2-30.5,144.8-46.9,191.9-48.7V63.7z M213.1,124.6v220.9c15.7,3.4,31,3.6,46.5,0.1v-221c-7.3,3.4-15.3,5-23.2,5
		C228.4,129.6,220.4,127.9,213.1,124.6z M213.1,365.7V381c15.5,3.9,30.8,3.6,46.5-0.1v-15.1C244.1,368.8,228.5,368.7,213.1,365.7
		L213.1,365.7z M259.6,401.2c-15.4,3.2-30.9,3.4-46.5,0.1v53.8c3.2,3.5,5.9,6.5,8.5,8.4c3.3,2.3,6.9,3.9,14.4,3.5h0.2h0.2
		c11.7,0,16.2-4.4,23.2-11.9L259.6,401.2L259.6,401.2z"/>
</g>
</svg>
