<?xml version="1.0" encoding="utf-8"?>
<!-- Generator: Adobe Illustrator 27.0.0, SVG Export Plug-In . SVG Version: 6.00 Build 0)  -->
<svg version="1.1" id="Layer_1" xmlns="http://www.w3.org/2000/svg" xmlns:xlink="http://www.w3.org/1999/xlink" x="0px" y="0px"
	 viewBox="0 0 512 512" style="enable-background:new 0 0 512 512;" xml:space="preserve">
<style type="text/css">
	.st0{fill:#FFFFFF;}
</style>
<g transform="translate(0,0)">
	<path class="st0" d="M196.1,21c-8.2,1-16.5,2.1-24.7,3.5c21,13,40.2,31.3,52.3,63.5c-25.2-24.8-44.6-43.6-76.6-59
		c-8.9,1.9-17.9,4-27,6.2C143.1,47,169.6,64,196,91.8c-58-28-82.5-34.2-121.4-43.5c-12.2,4-24.6,8.3-37.3,12.9
		c55.4,3.9,104.1,21.6,189.2,52.6l2,0.8l1.5,1.7c5.9,6.4,15.6,10.3,25.5,10.4C252.8,83.2,236.6,51.9,196.1,21L196.1,21z M315.9,21
		c-40.4,30.9-56.7,62.1-59.4,105.6c9.9-0.1,19.6-4,25.5-10.4l1.5-1.7l2-0.8c85.1-31,133.8-48.7,189.2-52.6
		c-12.6-4.6-25.1-8.9-37.3-12.9C398.6,57.5,374,63.7,316,91.8C342.4,64,368.9,47,391.9,35.2c-9.1-2.3-18-4.4-27-6.2
		c-31.9,15.4-51.4,34.2-76.6,59c12.1-32.2,31.3-50.5,52.3-63.5C332.4,23.2,324.1,22,315.9,21L315.9,21z M22.7,80.7v332.7
		c45.2,0.2,107.1,18.5,191.9,49.1V130.5C126.7,98.5,79.9,82.2,22.7,80.7L22.7,80.7z M489.3,80.7c-57.3,1.5-104,17.9-191.9,49.8
		v331.9c85.2-30.5,144.8-46.9,191.9-48.7V80.7z M232.8,141.5v220.9c15.7,3.4,31,3.6,46.5,0.1v-221c-7.3,3.4-15.3,5-23.2,5
		C248,146.5,240,144.8,232.8,141.5z M232.8,382.6v15.3c15.5,3.9,30.8,3.6,46.5-0.1v-15.1C263.7,385.7,248.1,385.6,232.8,382.6
		L232.8,382.6z M279.2,418.1c-15.4,3.2-30.9,3.4-46.5,0.1V472c3.2,3.5,5.9,6.5,8.5,8.4c3.3,2.3,6.9,3.9,14.4,3.5h0.2h0.2
		c11.7,0,16.2-4.4,23.2-11.9L279.2,418.1L279.2,418.1z"/>
</g>
</svg>
