<?xml version="1.0" encoding="utf-8"?>
<!-- Generator: Adobe Illustrator 27.0.0, SVG Export Plug-In . SVG Version: 6.00 Build 0)  -->
<svg version="1.1" id="Layer_1" xmlns="http://www.w3.org/2000/svg" xmlns:xlink="http://www.w3.org/1999/xlink" x="0px" y="0px"
	 viewBox="0 0 512 512" style="enable-background:new 0 0 512 512;" xml:space="preserve">
<style type="text/css">
	.st0{fill:#FFFFFF;}
</style>
<g transform="translate(0,0)">
	<path class="st0" d="M196.7,21c-8.1,1-16.3,2.1-24.5,3.5C193,37.5,212,55.8,224,88.1c-24.9-24.8-44.2-43.6-75.8-59
		c-8.8,1.9-17.7,4-26.7,6.2c22.7,11.8,49,28.8,75.1,56.6c-57.4-28-81.7-34.2-120.2-43.5c-12.1,4-24.4,8.3-36.9,12.9
		c54.8,3.9,103.1,21.6,187.3,52.6l2,0.8l1.5,1.7c5.8,6.4,15.4,10.3,25.2,10.4C252.8,83.2,236.8,51.9,196.7,21L196.7,21z M315.3,21
		c-40,30.9-56.1,62.1-58.8,105.6c9.8-0.1,19.4-4,25.2-10.4l1.5-1.7l2-0.8c84.2-31,132.5-48.7,187.3-52.6
		c-12.5-4.6-24.8-8.9-36.9-12.9c-38.4,9.2-62.8,15.3-120.2,43.5C341.5,64,367.8,47,390.5,35.2c-9-2.3-17.8-4.4-26.7-6.2
		c-31.6,15.4-50.9,34.2-75.8,59c12-32.2,31-50.5,51.8-63.5C331.6,23.2,323.4,22,315.3,21L315.3,21z M25,80.7v332.7
		c44.7,0.2,106,18.5,190,49.1V130.5C128,98.5,81.7,82.2,25,80.7L25,80.7z M487,80.7c-56.7,1.5-103,17.9-190,49.8v331.9
		c84.3-30.5,143.4-46.9,190-48.7V80.7z M233,141.5v220.9c15.5,3.4,30.7,3.6,46,0.1v-221c-7.2,3.4-15.1,5-23,5S240.2,144.8,233,141.5
		z M233,382.6v15.3c15.3,3.9,30.5,3.6,46-0.1v-15.1C263.6,385.7,248.2,385.6,233,382.6L233,382.6z M279,418.1
		c-15.2,3.2-30.6,3.4-46,0.1V472c3.2,3.5,5.8,6.5,8.4,8.4c3.3,2.3,6.8,3.9,14.3,3.5h0.2h0.2c11.6,0,16-4.4,23-11.9L279,418.1
		L279,418.1z"/>
</g>
</svg>
