<?xml version="1.0" encoding="utf-8"?>
<!-- Generator: Adobe Illustrator 27.0.0, SVG Export Plug-In . SVG Version: 6.00 Build 0)  -->
<svg version="1.1" id="Layer_1" xmlns="http://www.w3.org/2000/svg" xmlns:xlink="http://www.w3.org/1999/xlink" x="0px" y="0px"
	 viewBox="0 0 512 512" style="enable-background:new 0 0 512 512;" xml:space="preserve">
<style type="text/css">
	.st0{fill:#FFFFFF;}
</style>
<g transform="translate(0,0)">
	<path class="st0" d="M146.9,20.8c-12.5,0-24.3,2.9-37.3,9.4h0C61.4,54.6,20,120.7,18,175.9l41.8,14.2
		c4.3-61.9,47.1-128.4,101.5-155.9h0c4.4-2.2,8.8-4.2,13.2-5.8L152.3,21C150.5,20.9,148.6,20.8,146.9,20.8L146.9,20.8z M206.2,41
		c-10.5-0.1-22.8,3.1-36.4,9.9l0,0c-48.2,24.3-89.6,90.5-91.5,145.4l156.5,53.2c3.9-62.2,46.8-129.4,101.6-157h0l0,0
		c4.3-2.2,8.6-4.1,12.8-5.7l-134.5-45C212,41.4,209.2,41.1,206.2,41L206.2,41z M381.2,99.4c-10.5-0.1-22.8,3.1-36.4,9.9l0,0
		c-48.6,24.5-90.2,91.5-91.6,146.6l46.2,15.7c3.9-62.2,46.8-129.3,101.6-156.9c4.5-2.3,9-4.3,13.5-5.9L388,99.9
		C385.8,99.6,383.5,99.4,381.2,99.4L381.2,99.4z M444.7,121.4c-10.3,0.1-22.1,3.4-35.3,10c-47.2,23.8-87.8,87.6-91.4,141.8
		l174.5-73.7c-0.4-39-10.8-61.3-24.4-71.1c-2.3-1.7-4.9-3.1-7.5-4.1l0,0l-4.7-1.6C452.4,121.8,448.7,121.3,444.7,121.4L444.7,121.4z
		 M17.9,195.6l0,187.5l41.6,14.5V209.8L17.9,195.6L17.9,195.6z M78.2,216.1v188l156.3,54.4V269.3l-29.1-9.9v119.4l-101.1-34.1V225
		L78.2,216.1z M492.4,219.8l-173.9,73.5v189.2L492.4,409L492.4,219.8L492.4,219.8z M123,231.4v99.9l63.7,21.5V253L123,231.4
		L123,231.4z M154.3,260.2c9.7,0,17.6,7.9,17.6,17.6c0,6.3-3.4,11.9-8.4,15v28.5h-18.7v-28.7c-4.8-3.1-8-8.6-8-14.8
		C136.7,268,144.6,260.2,154.3,260.2z M253.1,275.6V465l46.6,16.2V291.5L253.1,275.6L253.1,275.6z"/>
</g>
</svg>
