<?xml version="1.0" encoding="utf-8"?>
<!-- Generator: Adobe Illustrator 27.0.0, SVG Export Plug-In . SVG Version: 6.00 Build 0)  -->
<svg version="1.1" id="Layer_1" xmlns="http://www.w3.org/2000/svg" xmlns:xlink="http://www.w3.org/1999/xlink" x="0px" y="0px"
	 viewBox="0 0 512 512" style="enable-background:new 0 0 512 512;" xml:space="preserve">
<style type="text/css">
	.st0{fill:#FFFFFF;}
</style>
<g transform="translate(0,0)">
	<path class="st0" d="M274.2,6.7c-7.3-0.1-14.8,1.6-22.5,4.9c-0.6,8.3,0.1,17.7,2.5,26.4c3.6,12.9,10.5,24.2,20.8,30.4
		c9.3,5.6,21.9,7.9,40.2,2.5c-3.3-7-6.4-13.9-9.3-20.2c-6.4-14-12.2-25.9-17.7-33.6C282.6,9.4,278.5,6.7,274.2,6.7L274.2,6.7z
		 M233.5,21.8c-8.2,5.8-16.6,13.1-25,21.7c-10.4,10.6-20.7,23-31,36.5c16.7,8,28.3,23.4,28.3,41.9c0,27.1-25.2,47.7-54.4,47.7
		c-12.1,0-23.5-3.5-32.7-9.6c-16.8,18.1-36.8,36.1-54.2,53.5c-13.1,13.1-24.8,25.8-32.4,37.3c-7.6,11.5-10.7,21.2-9.3,28.7
		c1.5,8.8,8.2,17.3,21,25.2c12.8,7.9,31.1,14.8,53,20.1c4.9,1.2,9.9,2.3,15.1,3.3c1.5-3.9,3.1-7.8,4.7-11.7
		c-12.8-3.6-23-9.8-29.3-18.6c-4.8-6.9-6.4-15.4-4.7-23.8c-43.7-38.8,37.6-90,56.7-49.8c9.2-3.5,18.9-6.3,29.1-8.6
		c24.4-5.5,51.3-7.9,78.2-8.3c8.9-0.1,17.9,0,26.8,0.3c35.4,1.2,69.3,5.5,95.4,10.7c13.1,2.6,24.2,5.5,32.9,8.5
		c4.3,1.5,8.1,3,11.2,4.7c3.2,1.7,5.9,3.2,8.4,6.6c21.5,29.9,5,67.3-23.1,75.9c1.2,3.1,2.3,6.3,3.4,9.5c18.2-4.3,37.7-9.9,53.7-17.5
		c-7.2-8.3-11.6-19.4-11.6-31.3c0-15,6.9-28.6,17.7-37.2c-5.6-6.6-12.2-13.4-19.6-20.2c-14.2-13.2-30.7-26.8-46.7-40.8
		c-22.1,26.1-61.7,28-79.7,13.7c-22.7-19.3-22.3-55.5-1.5-80.4c4.1-5,8.9-9.3,14.3-12.9c-1.7-3.2-3.4-6.4-5.1-9.6
		c-23.3,7.5-42.9,5.3-57.5-3.5c-15.3-9.3-24.4-24.9-28.8-41C234.9,35.9,233.8,28.9,233.5,21.8L233.5,21.8z M166.5,94.8
		c-13.6,18-23.1,35.5-35.9,51.5c5.8,3.3,12.9,5.3,20.8,5.3c20.9,0,36.4-14.1,36.4-29.7C187.8,110.3,179.4,99.7,166.5,94.8z
		 M337.3,112.4c-23.3,15.8-27.3,53-10.4,63.9c20.4,13.2,44.1,1.8,54.8-11.9C364.4,148.9,348.9,130.7,337.3,112.4L337.3,112.4z
		 M90.4,257.6c8.3-10.6,19.1-19,31.8-25.7C112.4,209.3,72.9,244.8,90.4,257.6L90.4,257.6z M251.5,225.3c-8.4,0-17.5,0.3-25,0.8
		l3.2,25.3c7.1-0.8,14-1.6,20.2-2.1L251.5,225.3z M268,247.9c6-0.3,11.9-0.5,17.8-0.6l5.4-20.9c-7.8-0.5-18.4-0.8-21.9-0.9
		L268,247.9z M208.5,227.4c-7.9,0.8-15.6,1.8-23.1,3.1l9.2,26.3c5.6-1.1,11.4-2.1,17.3-3.1L208.5,227.4z M309.4,227.9l-5.1,19.7
		c7.2,0.3,14.1,0.8,20.6,1.5l11.7-18C327.6,229.8,318.5,228.8,309.4,227.9L309.4,227.9z M356.1,234.2l-11.8,18.2
		c5.6,1.4,10.5,2.9,15.3,5l19.7-18.2C371.1,237.1,363.7,235.6,356.1,234.2L356.1,234.2z M167.6,234.3c-5.5,1.4-11,3-16.4,4.8
		l12,25.8c4.5-1.4,9.1-2.7,13.7-3.9L167.6,234.3z M399.3,245.1l-24.6,22.7c1.6,1.9,2.7,3.9,3.9,5.8l34.5-10
		C411.1,253.5,407.7,248.4,399.3,245.1L399.3,245.1z M134.6,245.9c-6.2,3-11.8,6.3-16.8,10l20.6,20c2.4-1.7,5.1-3.1,8.1-4.5
		L134.6,245.9z M472.3,251.9c-6.4,5.2-10.5,13.4-10.5,22.9c0,8.8,3.6,16.6,9.2,21.8c6.9-5.5,10.1-10.8,10.5-15.4
		C482.2,271.9,478.8,262.1,472.3,251.9L472.3,251.9z M146.3,293.1c-30.6,68.3-41.5,96-28.8,156c3.4,16,100.9,23.2,152.5,21.7
		c-1.3-11.9-2.9-31.4-2-51.3c0.7-16,2.9-32.2,8.8-45.7c5.9-13.5,17.4-25,33.4-25.7c16.6-0.7,29.8,8.6,38.2,20.9
		c8.4,12.3,13.2,27.7,16.4,42.9c3.9,18.5,5.2,36.9,5.6,48.4c5.5-1.8,12.4-3.5,16.2-7.1c14.5-62.2,11.7-111.9-24.8-172.7
		C349.9,258.7,157.7,264.1,146.3,293.1L146.3,293.1z M104.8,268.4c-4.7,7.3-6.6,13.3-2.7,19.1c3.2,4.5,10.6,9.3,21.7,12.2
		c1.3-3,2.6-6,4-9L104.8,268.4z M409.4,283.5l-22,6.4c1.3,2.5,2.5,5,3.6,7.5C398.6,295.7,405.3,290.6,409.4,283.5L409.4,283.5z
		 M242.3,299.9c-6.3,29.9-9.3,55.8-7.9,83.8c-30.6,4-65.7,3.1-90.5-2.5c3.1-27.4,8.5-58.3,18.6-78.9
		C191.8,297.1,215,293.5,242.3,299.9L242.3,299.9z M205.2,313.7c-1.3,5.8-2.4,11.6-3.4,17.5l16,0.3c0.7-5.9,1.6-11.7,2.8-17.4
		C215.4,313.6,210.2,313.6,205.2,313.7z M186.5,315.2c-4.1,0.6-8.7-0.2-12,0.6c-1.7,4-2.4,10.1-3.7,14.9l12.8,0.2
		C184.5,325.7,185.4,320.4,186.5,315.2z M167.1,348.6c-1,6.2-2,12.4-2.9,18.5c4.9,0.8,10.1,1.3,15.4,1.7c0.3-6.7,0.8-13.3,1.5-20
		L167.1,348.6z M199.3,349.2c-0.7,6.6-1.3,13.3-1.6,20c6.2-0.1,12.4-0.5,18.1-1.2c-0.1-6,0-12.2,0.4-18.5L199.3,349.2z M311,366.1
		c-22.1,4-24.2,37.1-25.1,54.2c-0.9,19.5,0.9,38.9,2.1,50c22.3-1.4,44.2-2.5,64.4-6c-0.3-10.4-1.3-29.6-5.3-48.6
		C342.6,395.8,332.4,366,311,366.1L311,366.1z M335.4,411.7l2.1,17.9l-17.9,2.1l-2.1-17.9L335.4,411.7z"/>
</g>
</svg>
