<?xml version="1.0" encoding="utf-8"?>
<!-- Generator: Adobe Illustrator 27.0.0, SVG Export Plug-In . SVG Version: 6.00 Build 0)  -->
<svg version="1.1" id="Layer_1" xmlns="http://www.w3.org/2000/svg" xmlns:xlink="http://www.w3.org/1999/xlink" x="0px" y="0px"
	 viewBox="0 0 512 512" style="enable-background:new 0 0 512 512;" xml:space="preserve">
<style type="text/css">
	.st0{fill:#FFFFFF;}
</style>
<g transform="translate(0,0)">
	<path class="st0" d="M298.9,24.3c-14.9,0.3-25.6,3.2-32.7,8.4l-97.3,52.1l-54.1,73.6c-11.4,17.6-3.3,51.6,32.3,29.8l39-51.4
		c49.5-42.7,150.5-23.1,102.6,62.6c-23.5,49.6-12.5,73.8,17.8,84l13.8-46.4c23.9-53.8,68.5-63.5,66.7-106.9l107.2,7.7l-1-112.1
		L298.9,24.3L298.9,24.3z M244.8,127.7c-17.4-0.3-34.5,6.9-46.9,17.3l-39.1,51.4c10.7,8.5,21.5,3.9,32.2-6.4
		c12.6,6.4,22.4-3.5,30.4-23.3C224.7,153.2,229.6,143.7,244.8,127.7L244.8,127.7z M165.2,223.7c-0.4,0-0.9,0-1.3,0.1
		c-3.3,0.7-7.2,4.2-9.8,12.2c-2.7,8-3.3,19.4-0.9,31.6c2.4,12.1,7.4,22.4,13,28.8c5.4,6.3,10.4,8.1,13.7,7.4
		c3.4-0.6,7.2-4.2,9.8-12.1c2.7-8,3.4-19.5,1-31.6c-2.5-12.2-7.5-22.5-13-28.8C172.9,225.7,168.5,223.7,165.2,223.7L165.2,223.7z
		 M247.8,330.5c-7.9,0.1-17.8,2.6-27.5,7.3c-11.1,5.5-19.8,13.1-24.5,20.1c-4.7,6.9-5.1,12.1-3.6,15.2c1.5,3,5.9,5.9,14.3,6.3
		c8.4,0.5,19.7-1.8,30.8-7.3s19.8-13,24.5-20c4.7-6.9,5.1-12.2,3.6-15.2c-1.5-3.1-5.9-5.9-14.3-6.3C250,330.5,249,330.5,247.8,330.5
		z M150.2,426.1c-4.7,0.1-9,0.8-12.8,1.9c-8.5,2.5-13.4,7-15,12.3c-1.7,5.4,0,11.8,5.7,18.7c5.8,6.8,15.5,13.3,27.5,16.9
		c11.9,3.6,23.5,3.5,32.1,0.9c8.6-2.5,13.5-7,15.1-12.3c1.6-5.4,0-11.8-5.8-18.7c-5.7-6.8-15.4-13.3-27.4-16.9
		C162.8,426.9,156.2,426,150.2,426.1L150.2,426.1z"/>
</g>
</svg>
