<?xml version="1.0" encoding="utf-8"?>
<!-- Generator: Adobe Illustrator 27.0.0, SVG Export Plug-In . SVG Version: 6.00 Build 0)  -->
<svg version="1.1" id="Layer_1" xmlns="http://www.w3.org/2000/svg" xmlns:xlink="http://www.w3.org/1999/xlink" x="0px" y="0px"
	 viewBox="0 0 512 512" style="enable-background:new 0 0 512 512;" xml:space="preserve">
<style type="text/css">
	.st0{fill:#FFFFFF;}
</style>
<g transform="translate(0,0)">
	<path class="st0" d="M312.5,36c-17.8,0-35,0.7-51.2,2.5l-16.8,44.9l-5-41.6c-2.5,0.5-5.1,0.9-7.6,1.6c-9.2,2-15.3,7.5-20.5,15.5
		c-5.3,8-9,18.2-12.2,27.7c-8.9,26-16,53.6-21.6,81.7c6.1,5.3,12.1,10.7,18.1,16l31-18.3l34.1,27.2l52.4-20.5l61.6,25.5l-6.9,17.4
		l-55-22.7l-55.3,21.5l-32.5-25.9l-15.1,8.8c19.8,18,39,35.8,57.1,53.3l14.1-6.7l34.2,16.8l31.5-13.6l24.4,24.2l-12.5,13.5l-16-15.7
		l-27.9,12.2L282,264.8c7,7,13.7,13.7,20.3,20.5l1.7,1.9l19.7,79.4l-7.9-5.9l-53.5,0.4l-38.5-18.5L181,357.7l-5.9-17.7l49.7-17.7
		l41.5,20l25-0.2l-71.4-53.8c-19.9,4.8-39.8,2.9-58.7-3.9c-4.2,46.2-6,89.2-7.1,123.5c-0.4,11.1,2.7,23.9,7.6,33.8
		c5,9.9,11.8,16,15.2,16.8c5.3,1.2,19.2,3.3,38.1,5.3l12.5-40.6l19.3,43.4c16.9,1.2,35.4,2.1,54,2.3c28.5,0.3,57.7-0.9,82.8-4.9
		c16-2.4,29.9-6.2,41.1-10.8c-11.9-5.3-21.8-11-29.4-17.3c-11.2-9.3-18.4-20.1-17.5-32.2v0.2c5.5-100.3,10.9-196.5,30.6-297.7
		l0.1-0.4l0.1-0.4c5.4-18.6,18.1-41.5,36.5-58.1c-14-2.2-28.9-4.2-44.1-5.9l-22.5,26.3L376.3,39c-19.2-1.7-38.8-2.8-58-3H312.5
		L312.5,36z M462.5,57.2c-4.7,3.9-9.3,8.3-13.4,13.2c12.2,8.5,21.6,24.4,22,38.5c0.3,8.1-1.9,15.5-7.8,22.3
		c-5.9,6.7-15.8,12.9-31.9,16.4l3.8,18.3c18.8-4.2,32.6-12,41.6-22.3c9.1-10.3,12.8-23.1,12.4-35.4
		C488.7,88.2,478.1,69.2,462.5,57.2L462.5,57.2z M23.1,60.9c-0.2,1.7-0.4,3.5-0.4,5.8c0.1,8,2,18.9,5.9,31.4
		c3.4,11.1,8.4,23.4,14.5,36.2c10.7-5.5,20.8-11.4,28.7-18.8c-4.4,13-10.3,25.7-18.8,38c4.1,7.5,8.7,15,13.5,22.4
		c10.7-5.5,20.9-13.5,29.8-27.2c-3.3,16.7-8.6,31.8-18.5,43.5c6.6,8.8,13.6,17.5,21,25.5c8.8-9.7,15.8-21.9,20.9-36.3
		c3.8,19.3,2.6,36.7-5.8,51.4c8.1,7.5,16.5,14.3,25.1,19.9c6.2-14.6,9-31.8,8.6-51.7c9.3,24.7,11.4,44.6,9.7,61.9
		c20.4,9.6,41.2,12.5,61.9,6.3l4.2-1.4l70,52.7l-6-23.7C213.9,221,110.5,133.7,23.1,60.9L23.1,60.9z M313.4,115l33.5,14.4l31.6-10.3
		L384,137l-37.9,12.4l-33.9-14.6l-29.1,8.4l-4.8-18.1L313.4,115z M421.8,360.8c-0.7,0-1.3,0.1-2,0.1c-3.5,0.1-7.3,0.5-11.2,1.4
		l3.4,18.3c12.3-2.4,20.2-0.4,24.8,2.6c4.4,3,6.4,7.1,6.5,13c0.1,9.7-7.1,23.9-23.5,33.8c5.5,3,12,6.1,19.5,9.1
		c14.5-12.1,22.3-27.9,22.2-43.1c-0.1-11.1-5.3-22.1-14.7-28.5C439.9,363,431.5,360.7,421.8,360.8L421.8,360.8z"/>
</g>
</svg>
