<?xml version="1.0" encoding="utf-8"?>
<!-- Generator: Adobe Illustrator 27.0.0, SVG Export Plug-In . SVG Version: 6.00 Build 0)  -->
<svg version="1.1" id="Layer_1" xmlns="http://www.w3.org/2000/svg" xmlns:xlink="http://www.w3.org/1999/xlink" x="0px" y="0px"
	 viewBox="0 0 472 472" style="enable-background:new 0 0 472 472;" xml:space="preserve">
<style type="text/css">
	.Drop_x0020_Shadow{fill:none;}
	.Round_x0020_Corners_x0020_2_x0020_pt{fill:#FFFFFF;stroke:#000000;stroke-miterlimit:10;}
	.Live_x0020_Reflect_x0020_X{fill:none;}
	.Bevel_x0020_Soft{fill:url(#SVGID_1_);}
	.Dusk{fill:#FFFFFF;}
	.Foliage_GS{fill:#FFDD00;}
	.Pompadour_GS{fill-rule:evenodd;clip-rule:evenodd;fill:#44ADE2;}
	.st0{fill:#FFFFFF;}
</style>
<linearGradient id="SVGID_1_" gradientUnits="userSpaceOnUse" x1="0" y1="0" x2="0.7071" y2="0.7071">
	<stop  offset="0" style="stop-color:#DEDFE3"/>
	<stop  offset="0.1738" style="stop-color:#D8D9DD"/>
	<stop  offset="0.352" style="stop-color:#C9CACD"/>
	<stop  offset="0.5323" style="stop-color:#B4B5B8"/>
	<stop  offset="0.7139" style="stop-color:#989A9C"/>
	<stop  offset="0.8949" style="stop-color:#797C7E"/>
	<stop  offset="1" style="stop-color:#656B6C"/>
</linearGradient>
<g transform="translate(0,0)">
	<path class="st0" d="M292.2,19.1c-17.6,0-34.7,0.7-50.8,2.5l-16.6,44.9l-4.9-41.6c-2.5,0.5-5,0.9-7.5,1.6
		c-9.1,2-15.1,7.5-20.3,15.5s-8.9,18.2-12.1,27.7c-8.8,26-15.8,53.6-21.4,81.7c6,5.3,12,10.7,17.9,16l30.8-18.3l33.9,27.2l52-20.5
		l61.1,25.5l-6.8,17.4l-54.5-22.7L238,197.4l-32.3-25.9l-14.9,8.8c19.6,18,38.7,35.8,56.6,53.3l14-6.7l34,16.8l31.3-13.6l24.3,24.2
		l-12.4,13.5l-15.8-15.7L295,264.3L262,247.8c6.9,7,13.6,13.7,20.1,20.5l1.7,1.9l19.5,79.4l-7.8-5.9l-53.1,0.4l-38.2-18.5
		l-42.5,15.2l-5.8-17.7l49.3-17.7l41.2,20l24.8-0.2l-70.9-53.8c-19.7,4.8-39.5,2.9-58.2-3.9c-4.2,46.2-5.9,89.2-7,123.5
		c-0.4,11.1,2.7,23.9,7.5,33.8c4.9,9.9,11.7,16,15,16.8c5.2,1.2,19,3.3,37.8,5.3l12.4-40.6l19.1,43.4c16.7,1.2,35.1,2.1,53.6,2.3
		c28.3,0.3,57.2-0.9,82.2-4.9c15.8-2.4,29.7-6.2,40.8-10.8c-11.8-5.3-21.7-11-29.2-17.3c-11.1-9.3-18.2-20.1-17.3-32.2v0.2
		c5.4-100.3,10.8-196.5,30.4-297.7l0.1-0.4l0.1-0.4c5.3-18.6,17.9-41.5,36.2-58.1c-13.9-2.2-28.7-4.2-43.8-5.9l-22.4,26.3l-2.2-28.8
		c-19-1.7-38.5-2.8-57.5-3H292.2L292.2,19.1z M441.1,40.3c-4.7,3.9-9.2,8.3-13.3,13.2c12.1,8.5,21.4,24.4,21.9,38.5
		c0.3,8.1-1.9,15.5-7.7,22.3c-5.8,6.7-15.6,12.9-31.7,16.4l3.8,18.3c18.6-4.2,32.4-12,41.3-22.3c9-10.3,12.7-23.1,12.3-35.4
		C467,71.3,456.5,52.3,441.1,40.3L441.1,40.3z M5.1,43.9c-0.2,1.7-0.4,3.5-0.4,5.8c0.1,8,2,18.9,5.8,31.4
		c3.4,11.1,8.3,23.4,14.4,36.2c10.6-5.5,20.6-11.4,28.5-18.8c-4.4,13-10.2,25.7-18.6,38c4.1,7.5,8.6,15,13.4,22.4
		c10.6-5.5,20.7-13.5,29.6-27.2c-3.3,16.7-8.5,31.8-18.3,43.5c6.5,8.8,13.5,17.5,20.8,25.5c8.7-9.7,15.6-21.9,20.7-36.3
		c3.8,19.3,2.6,36.7-5.7,51.4c8,7.5,16.3,14.3,24.9,19.9c6.1-14.6,8.9-31.8,8.5-51.7c9.2,24.7,11.3,44.6,9.6,61.9
		c20.2,9.6,40.9,12.5,61.4,6.3l4.2-1.4l69.5,52.7l-5.9-23.7C194.4,204.1,91.8,116.8,5.1,43.9L5.1,43.9z M293.1,98.1l33.3,14.4
		l31.4-10.3l5.4,17.9l-37.6,12.4l-33.7-14.6l-28.9,8.4l-4.8-18.1L293.1,98.1z M400.7,343.9c-0.7,0-1.3,0.1-2,0.1
		c-3.5,0.1-7.2,0.5-11.1,1.4l3.4,18.3c12.2-2.4,20-0.4,24.6,2.6c4.4,3,6.3,7.1,6.4,13c0.1,9.7-7,23.9-23.4,33.8
		c5.4,3,11.9,6.1,19.3,9.1c14.4-12.1,22.2-27.9,22.1-43.1c-0.1-11.1-5.2-22.1-14.6-28.5C418.6,346.1,410.3,343.8,400.7,343.9
		L400.7,343.9z"/>
</g>
</svg>
