<?xml version="1.0" encoding="utf-8"?>
<!-- Generator: Adobe Illustrator 27.0.0, SVG Export Plug-In . SVG Version: 6.00 Build 0)  -->
<svg version="1.1" id="Layer_1" xmlns="http://www.w3.org/2000/svg" xmlns:xlink="http://www.w3.org/1999/xlink" x="0px" y="0px"
	 viewBox="0 0 512 512" style="enable-background:new 0 0 512 512;" xml:space="preserve">
<style type="text/css">
	.st0{fill:#FFFFFF;}
</style>
<g transform="translate(0,0)">
	<path class="st0" d="M312.5,21c-17.8,0-35,0.8-51.2,2.7l-16.8,48l-5-44.5c-2.5,0.6-5.1,1-7.6,1.7c-9.2,2.1-15.3,8-20.5,16.6
		c-5.3,8.6-9,19.5-12.2,29.6c-8.9,27.8-16,57.3-21.6,87.4c6.1,5.7,12.1,11.5,18.1,17.1l31-19.6l34.1,29l52.4-21.9l61.6,27.3
		l-6.9,18.6l-55-24.3l-55.3,23l-32.5-27.7l-15.1,9.5c19.8,19.3,39,38.3,57.1,57l14.1-7.1l34.2,17.9l31.5-14.6l24.4,25.9L359.2,287
		l-16-16.8l-27.9,13L282,265.6c7,7.5,13.7,14.7,20.3,21.9l1.7,2l19.7,84.9l-7.9-6.3l-53.5,0.4l-38.5-19.8L181,365l-5.9-18.9
		l49.7-18.9l41.5,21.4l25-0.2l-71.4-57.5c-19.9,5.1-39.8,3.1-58.7-4.1c-4.2,49.4-6,95.4-7.1,132.1c-0.4,11.9,2.7,25.6,7.6,36.2
		c5,10.6,11.8,17.1,15.2,17.9c5.3,1.3,19.2,3.6,38.1,5.7l12.5-43.4l19.3,46.4c16.9,1.3,35.4,2.2,54,2.4c28.5,0.3,57.7-1,82.8-5.2
		c16-2.6,29.9-6.7,41.1-11.6c-11.9-5.7-21.8-11.8-29.4-18.5c-11.2-9.9-18.4-21.5-17.5-34.4v0.2c5.5-107.3,10.9-210.1,30.6-318.3
		l0.1-0.4l0.1-0.4c5.4-19.9,18.1-44.4,36.5-62.1c-14-2.3-28.9-4.5-44.1-6.3l-22.5,28.2l-2.2-30.8c-19.2-1.8-38.8-3-58-3.2H312.5
		L312.5,21z M462.5,43.7c-4.7,4.1-9.3,8.9-13.4,14.1c12.2,9.1,21.6,26,22,41.2c0.3,8.7-1.9,16.6-7.8,23.8
		c-5.9,7.1-15.8,13.8-31.9,17.6l3.8,19.6c18.8-4.5,32.6-12.8,41.6-23.8c9.1-11,12.8-24.7,12.4-37.8
		C488.7,76.9,478.1,56.5,462.5,43.7L462.5,43.7z M23.1,47.6c-0.2,1.8-0.4,3.8-0.4,6.2c0.1,8.6,2,20.3,5.9,33.6
		c3.4,11.9,8.4,25,14.5,38.7c10.7-5.9,20.8-12.2,28.7-20.1c-4.4,13.9-10.3,27.5-18.8,40.6c4.1,8,8.7,16,13.5,23.9
		c10.7-5.9,20.9-14.5,29.8-29c-3.3,17.8-8.6,34.1-18.5,46.5c6.6,9.5,13.6,18.7,21,27.3c8.8-10.3,15.8-23.4,20.9-38.8
		c3.8,20.6,2.6,39.3-5.8,55c8.1,8,16.5,15.2,25.1,21.3c6.2-15.6,9-34.1,8.6-55.3c9.3,26.4,11.4,47.7,9.7,66.2
		c20.4,10.2,41.2,13.4,61.9,6.8l4.2-1.4l70,56.3l-6-25.4C213.9,218.9,110.5,125.5,23.1,47.6L23.1,47.6z M313.4,105.5l33.5,15.4
		l31.6-11l5.5,19.1l-37.9,13.2l-33.9-15.6l-29.1,9l-4.8-19.4L313.4,105.5z M421.8,368.3c-0.7,0-1.3,0.1-2,0.1
		c-3.5,0.1-7.3,0.6-11.2,1.4l3.4,19.6c12.3-2.6,20.2-0.4,24.8,2.8c4.4,3.2,6.4,7.6,6.5,13.9c0.1,10.3-7.1,25.6-23.5,36.2
		c5.5,3.2,12,6.6,19.5,9.7c14.5-12.9,22.3-29.8,22.2-46.1c-0.1-11.9-5.3-23.6-14.7-30.5C439.9,370.7,431.5,368.2,421.8,368.3
		L421.8,368.3z"/>
</g>
</svg>
