<?xml version="1.0" encoding="utf-8"?>
<!-- Generator: Adobe Illustrator 27.0.0, SVG Export Plug-In . SVG Version: 6.00 Build 0)  -->
<svg version="1.1" id="Layer_1" xmlns="http://www.w3.org/2000/svg" xmlns:xlink="http://www.w3.org/1999/xlink" x="0px" y="0px"
	 viewBox="0 0 512 512" style="enable-background:new 0 0 512 512;" xml:space="preserve">
<style type="text/css">
	.st0{fill:#FFFFFF;}
</style>
<g transform="translate(0,0)">
	<path class="st0" d="M105,41v96h30V41H105z M377,41v98h30V41H377z M25,57v30h62V57H25z M153,57v30h206V57H153z M425,57v30h62V57
		H425z M69,137v99l56.8,14.2L69,265.7v126.1c14.4-3.5,29-1.7,42.7,3.4c17.9,6.5,34.9,18,51.6,30.1c33.4,24.3,65.9,50.3,92.7,50.3
		s59.3-26,92.7-50.3c16.7-12.1,33.7-23.6,51.6-30.1c13.7-5.1,28.3-6.9,42.7-3.4v-42.6l-15.4-10.7l-28.2-19.6L443,323V220.4
		l-45.7-14.5l45.7-9.5V137h-18v20h-66v-20H153v18H87v-18H69z M253.3,167h0.3c14.9,0.5,22.8,11.9,26.5,15.5c1.9,1.9,1.8,1.6,2.1,1.6
		c5.5-2.5,6.8-3.7,11.3-7.7h3.4c10,0,18.8,5.3,24.7,12.8c5.9,7.5,9.2,17.4,9.2,28.1c0,3.9-0.4,7.6-1.3,11.2
		c4.1-1.5,8.1-2.7,12.2-2.9c1.5-0.2,2.9-0.1,4.3,0.1c5.9,0.6,12.7,5.2,14.6,11.7c10.3,34.2,7.7,71.4,0.1,100.8
		c-2.7,10.6-10.6,17.6-18.6,20.3c-4.5,1.5-8.9,2.1-13.1,2.4c-0.2,2,0,32.6,0,50.1H183c-0.1-17.9,0-34.7,0-52
		c3.5-30.3,8.9-71.6,12.6-104.5c-13.1-6.2-22.3-18.8-22.3-33.7c0-21.2,18.7-37.8,40.6-37.8c4.1,0,8.2,0.6,12,1.8
		C232.2,174.3,241.8,167,253.3,167L253.3,167z M253.2,185c-4.7,0.1-10.7,4.3-14.5,14.4l-3.6,9.7l-9.1-5c-3.6-2-7.9-3.1-12.1-3.1
		c-13.1,0-22.6,9.2-22.6,19.8s9.5,19.8,22.6,19.8c5.4,0,10.6-1.7,14.5-4.6l7.9-5.9l5.2,8.4c3.8,6.3,8.1,8.5,11.8,8.5
		c4.7,0,10.8-4.3,14.7-14.6l6.9-18.5l9.4,17.3c3.5,6.3,8.1,9,12.6,9c3.7,0,7.3-1.9,10.5-5.9c3.1-4,5.4-10.1,5.4-17s-2.3-13-5.4-17
		c-2.4-3-5-4.8-7.8-5.6c-5.6,4.4-10.8,7.1-16.5,7.4c-6.7,0.3-12.2-3.5-15.5-6.6C261.2,189.3,259.5,185.3,253.2,185L253.2,185z
		 M343.6,243.6c-9.9,1.2-19.7,7.5-26.9,13.2l9.6,86.1c3.9-0.2,7.5-0.6,10-1.5c3.9-1.3,5.6-2.3,7-7.6
		C350.1,307.3,352.2,273.2,343.6,243.6L343.6,243.6z M278,251.2c-6.2,8.3-14.7,13.8-24.7,13.8c-8.4,0-16-3.9-21.9-10.2
		c-5.5,2.5-11.5,3.8-17.5,3.8h-0.6L202.1,359h107.8l-11.2-100.9c-0.6,0.1-1.2,0.1-1.8,0.1C289.9,258.2,283.4,255.6,278,251.2
		L278,251.2z M201,377v16h110v-16H201z"/>
</g>
</svg>
